<svg id="Capa_1" enable-background="new 0 0 512 512" height="512" viewBox="0 0 512 512" width="512" xmlns="http://www.w3.org/2000/svg"><g><g><path d="m417.606 153.322h-315.026c-11.568 0-20.945 9.377-20.945 20.945v306.628c0 11.568 9.377 20.945 20.945 20.945h315.026c11.568 0 20.945-9.378 20.945-20.945v-306.628c.001-11.568-9.377-20.945-20.945-20.945z" fill="#c1e5ef"/><path d="m417.606 153.322h-46.95c9.951 0 18.018 8.067 18.018 18.019v263.778c0 9.951-8.067 18.018-18.018 18.018h-271.003c-9.951 0-18.018-8.067-18.018-18.018v45.777c0 11.568 9.377 20.945 20.945 20.945h315.026c11.568 0 20.945-9.377 20.945-20.945v-306.629c.001-11.568-9.377-20.945-20.945-20.945z" fill="#a6aaed"/><path d="m417.434 128.128h-314.681c-17.779 0-32.192 14.413-32.192 32.193v74.847c0 4.889 3.964 8.853 8.853 8.853h361.361c4.889 0 8.853-3.964 8.853-8.853v-74.848c-.001-17.779-14.414-32.192-32.194-32.192z" fill="#d789b9"/><path d="m417.434 128.128h-47.403c14.25 0 25.802 11.552 25.802 25.802v53.866c0 3.919-3.177 7.096-7.096 7.096h-311.081c-3.919 0-7.096-3.177-7.096-7.096v27.372c0 4.889 3.964 8.853 8.853 8.853h361.361c4.889 0 8.853-3.963 8.853-8.853v-74.848c0-17.779-14.413-32.192-32.193-32.192z" fill="#c668b9"/><path d="m152.537 184.026h-.365c-14.837 0-26.865-12.028-26.865-26.865v-54.237c0-14.837 12.028-26.865 26.865-26.865h.365c14.837 0 26.865 12.028 26.865 26.865v54.237c-.001 14.838-12.028 26.865-26.865 26.865z" fill="#96b4eb"/><path d="m368.016 184.026h-.366c-14.837 0-26.865-12.028-26.865-26.865v-54.237c0-14.837 12.028-26.865 26.865-26.865h.366c14.837 0 26.865 12.028 26.865 26.865v54.237c-.001 14.838-12.028 26.865-26.865 26.865z" fill="#96b4eb"/><path d="m302.38 401.51c-.714-11.628-10.465-20.744-22.23-20.548-9.325.156-17.187 6.118-20.211 14.383-3.298-8.159-11.355-13.855-20.68-13.7-11.556.193-20.866 9.301-21.501 20.661-3.508 22.632 42.491 54.854 42.491 54.854s46.07-33.672 42.131-55.65z" fill="#e8c2d8"/><g fill="#96b4eb"><path d="m166.088 340.407h-21.79c-8.524 0-15.435-6.91-15.435-15.435v-21.79c0-8.524 6.91-15.435 15.435-15.435h21.79c8.524 0 15.434 6.91 15.434 15.435v21.79c0 8.525-6.91 15.435-15.434 15.435z"/><path d="m270.988 340.407h-21.79c-8.524 0-15.434-6.91-15.434-15.435v-21.79c0-8.524 6.91-15.435 15.434-15.435h21.79c8.524 0 15.435 6.91 15.435 15.435v21.79c0 8.525-6.91 15.435-15.435 15.435z"/><path d="m375.889 340.407h-21.79c-8.524 0-15.434-6.91-15.434-15.435v-21.79c0-8.524 6.91-15.435 15.434-15.435h21.79c8.524 0 15.434 6.91 15.434 15.435v21.79c0 8.525-6.91 15.435-15.434 15.435z"/><path d="m166.088 454.634h-21.79c-8.524 0-15.435-6.91-15.435-15.435v-21.79c0-8.524 6.91-15.434 15.435-15.434h21.79c8.524 0 15.434 6.91 15.434 15.434v21.79c0 8.525-6.91 15.435-15.434 15.435z"/><path d="m375.889 454.634h-21.79c-8.524 0-15.434-6.91-15.434-15.435v-21.79c0-8.524 6.91-15.434 15.434-15.434h21.79c8.524 0 15.434 6.91 15.434 15.434v21.79c0 8.525-6.91 15.435-15.434 15.435z"/></g><path d="m469.521 22.705 8.345 23.465c.357 1.005 1.065 1.801 1.957 2.203l20.848 9.393c2.945 1.327 2.945 6.02 0 7.347l-20.848 9.393c-.892.402-1.6 1.198-1.957 2.203l-8.345 23.465c-1.179 3.315-5.348 3.315-6.527 0l-8.345-23.465c-.357-1.005-1.064-1.801-1.957-2.203l-20.848-9.393c-2.945-1.327-2.945-6.02 0-7.347l20.848-9.393c.893-.402 1.6-1.198 1.957-2.203l8.345-23.465c1.179-3.315 5.348-3.315 6.527 0z" fill="#e8c2d8"/><path d="m38.707 64.271 6.19 17.406c.265.745.79 1.336 1.452 1.634l15.464 6.967c2.185.984 2.185 4.465 0 5.45l-15.464 6.967c-.662.298-1.187.889-1.452 1.634l-6.19 17.406c-.875 2.459-3.967 2.459-4.842 0l-6.19-17.406c-.265-.745-.79-1.336-1.452-1.634l-15.464-6.967c-2.185-.984-2.185-4.465 0-5.45l15.464-6.967c.662-.298 1.187-.889 1.452-1.634l6.19-17.406c.874-2.459 3.967-2.459 4.842 0z" fill="#e8c2d8"/><ellipse cx="314.218" cy="18.222" fill="#d789b9" rx="18.222" ry="18.222" transform="matrix(.211 -.977 .977 .211 230.045 321.504)"/><circle cx="115.466" cy="32.997" fill="#d789b9" r="7.86"/></g><g><g fill="#3c122c"><path d="m428.393 244.525v236.37c0 5.948-4.839 10.787-10.786 10.787h-315.026c-5.948 0-10.786-4.839-10.786-10.787v-238.973c-7.382.768-14.546.03-20.318-4.271v243.245c0 17.151 13.953 31.105 31.104 31.105h315.026c17.151 0 31.104-13.954 31.104-31.105v-255.992c-2.732 10.316-10.422 17.393-20.318 19.621z"/><path d="m181.596 117.969h158.15v20.318h-158.15z"/><path d="m417.434 117.969h-23.281v20.318h23.281c12.15 0 22.034 9.884 22.034 22.033v73.542h-358.749v-73.542c0-12.149 9.884-22.033 22.034-22.033h18.442v-20.318h-18.442c-23.353 0-42.352 18.998-42.352 42.351v74.848c0 10.483 8.528 19.012 19.012 19.012h361.361c10.483 0 19.012-8.528 19.012-19.012v-74.848c0-23.352-18.999-42.351-42.352-42.351z"/><path d="m152.537 194.185h-.365c-20.415 0-37.024-16.609-37.024-37.023v-54.237c0-20.415 16.609-37.024 37.024-37.024h.365c20.415 0 37.024 16.608 37.024 37.024v54.237c-.001 20.415-16.609 37.023-37.024 37.023zm-.366-107.966c-9.212 0-16.706 7.494-16.706 16.706v54.237c0 9.212 7.494 16.705 16.706 16.705h.365c9.212 0 16.706-7.494 16.706-16.705v-54.237c0-9.211-7.494-16.706-16.706-16.706z"/><path d="m368.015 194.185h-.365c-20.415 0-37.024-16.609-37.024-37.023v-54.237c0-20.415 16.609-37.024 37.024-37.024h.365c20.415 0 37.024 16.608 37.024 37.024v54.237c0 20.415-16.608 37.023-37.024 37.023zm-.365-107.966c-9.212 0-16.706 7.494-16.706 16.706v54.237c0 9.212 7.494 16.705 16.706 16.705h.365c9.212 0 16.706-7.494 16.706-16.705v-54.237c0-9.211-7.494-16.706-16.706-16.706z"/><path d="m260.249 467.319c-2.039 0-4.078-.612-5.829-1.838-.498-.349-12.326-8.672-23.858-20.019-17.158-16.884-24.66-31.353-22.917-44.207 1.171-16.456 14.89-29.49 31.444-29.767 7.594-.143 14.84 2.494 20.569 7.074 5.574-4.769 12.735-7.631 20.321-7.757 16.961-.272 31.169 12.636 32.499 29.514 1.949 12.593-5.404 27.123-22.459 44.396-11.467 11.613-23.28 20.284-23.777 20.647-1.782 1.303-3.887 1.957-5.993 1.957zm-20.627-75.518c-.064 0-.128.001-.192.001-6.123.102-11.186 4.965-11.528 11.071-.018.331-.053.661-.104.989-1.466 9.456 16.356 28.103 32.346 40.575 17.652-14.172 33.75-32.691 32.236-41.135-.069-.387-.116-.778-.14-1.17-.381-6.214-5.509-11.014-11.719-11.014-.067 0-.134.001-.201.001-4.825.081-9.181 3.182-10.84 7.716-1.444 3.947-5.169 6.597-9.371 6.667-4.235.063-8.013-2.455-9.588-6.35-1.785-4.416-6.149-7.351-10.899-7.351z"/><path d="m166.088 350.566h-21.79c-14.112 0-25.594-11.481-25.594-25.593v-21.79c0-14.112 11.481-25.593 25.594-25.593h21.79c14.112 0 25.593 11.481 25.593 25.593v21.79c0 14.112-11.481 25.593-25.593 25.593zm-21.79-52.659c-2.909 0-5.276 2.367-5.276 5.275v21.79c0 2.909 2.367 5.275 5.276 5.275h21.79c2.909 0 5.275-2.367 5.275-5.275v-21.79c0-2.909-2.367-5.275-5.275-5.275z"/><path d="m270.989 350.566h-21.79c-14.112 0-25.593-11.481-25.593-25.593v-21.79c0-14.112 11.481-25.593 25.593-25.593h21.79c14.112 0 25.593 11.481 25.593 25.593v21.79c0 14.112-11.481 25.593-25.593 25.593zm-21.791-52.659c-2.909 0-5.275 2.367-5.275 5.275v21.79c0 2.909 2.367 5.275 5.275 5.275h21.79c2.909 0 5.275-2.367 5.275-5.275v-21.79c0-2.909-2.367-5.275-5.275-5.275z"/><path d="m375.889 350.566h-21.79c-14.112 0-25.593-11.481-25.593-25.593v-21.79c0-14.112 11.481-25.593 25.593-25.593h21.79c14.112 0 25.594 11.481 25.594 25.593v21.79c-.001 14.112-11.482 25.593-25.594 25.593zm-21.79-52.659c-2.909 0-5.275 2.367-5.275 5.275v21.79c0 2.909 2.367 5.275 5.275 5.275h21.79c2.909 0 5.276-2.367 5.276-5.275v-21.79c0-2.909-2.367-5.275-5.276-5.275z"/><path d="m166.088 464.793h-21.79c-14.112 0-25.594-11.481-25.594-25.593v-21.79c0-14.112 11.481-25.594 25.594-25.594h21.79c14.112 0 25.593 11.481 25.593 25.594v21.79c0 14.112-11.481 25.593-25.593 25.593zm-21.79-52.659c-2.909 0-5.276 2.367-5.276 5.276v21.79c0 2.909 2.367 5.275 5.276 5.275h21.79c2.909 0 5.275-2.367 5.275-5.275v-21.79c0-2.909-2.367-5.276-5.275-5.276z"/><path d="m375.889 464.793h-21.79c-14.112 0-25.593-11.481-25.593-25.593v-21.79c0-14.112 11.481-25.594 25.593-25.594h21.79c14.112 0 25.594 11.481 25.594 25.594v21.79c-.001 14.112-11.482 25.593-25.594 25.593zm-21.79-52.659c-2.909 0-5.275 2.367-5.275 5.276v21.79c0 2.909 2.367 5.275 5.275 5.275h21.79c2.909 0 5.276-2.367 5.276-5.275v-21.79c0-2.909-2.367-5.276-5.276-5.276z"/></g><path d="m274.819 175.427c-6.1 0-12.236-.058-18.365-.173-5.61-.105-10.072-4.738-9.967-10.347.105-5.61 4.767-10.082 10.348-9.966 12.004.225 24.031.225 35.748 0 5.587-.118 10.244 4.352 10.352 9.962s-4.352 10.245-9.962 10.352c-5.986.114-12.052.172-18.154.172z" fill="#fff"/><path d="m225.004 175.256h-3.885c-5.611 0-10.159-4.548-10.159-10.159s4.548-10.159 10.159-10.159h3.885c5.611 0 10.159 4.548 10.159 10.159s-4.548 10.159-10.159 10.159z" fill="#fff"/></g></g></svg>