<svg id="Capa_1" enable-background="new 0 0 512 512" height="512" viewBox="0 0 512 512" width="512" xmlns="http://www.w3.org/2000/svg" xmlns:xlink="http://www.w3.org/1999/xlink"><linearGradient id="SVGID_1_" gradientUnits="userSpaceOnUse" x1="74.981" x2="437.02" y1="437.019" y2="74.98"><stop offset="0" stop-color="#0056e0"/><stop offset="1" stop-color="#fc54ff"/></linearGradient><radialGradient id="SVGID_2_" cx="256.001" cy="256" gradientUnits="userSpaceOnUse" r="258.6"><stop offset=".0053" stop-color="#8d00db" stop-opacity=".66"/><stop offset="1" stop-color="#fc54ff" stop-opacity="0"/></radialGradient><linearGradient id="lg1"><stop offset="0" stop-color="#230be0"/><stop offset="1" stop-color="#fc54ff"/></linearGradient><linearGradient id="SVGID_3_" gradientUnits="userSpaceOnUse" x1="-45.687" x2="657.362" xlink:href="#lg1" y1="557.687" y2="-145.362"/><radialGradient id="SVGID_4_" cx="256" cy="256" gradientUnits="userSpaceOnUse" r="200.9"><stop offset=".73" stop-color="#8d00db" stop-opacity=".66"/><stop offset=".7717" stop-color="#9506de" stop-opacity=".558"/><stop offset=".8358" stop-color="#aa16e5" stop-opacity=".401"/><stop offset=".9144" stop-color="#ce31f0" stop-opacity=".209"/><stop offset="1" stop-color="#fc54ff" stop-opacity="0"/></radialGradient><linearGradient id="lg2"><stop offset="0" stop-color="#fc54ff"/><stop offset=".2201" stop-color="#fd75ff"/><stop offset=".7016" stop-color="#fec8ff"/><stop offset="1" stop-color="#fff"/></linearGradient><linearGradient id="SVGID_5_" gradientUnits="userSpaceOnUse" x1="113.149" x2="710.576" xlink:href="#lg2" y1="398.851" y2="-198.576"/><linearGradient id="lg3"><stop offset="0" stop-color="#fc54ff"/><stop offset=".1022" stop-color="#fd77ff"/><stop offset=".2431" stop-color="#fda0ff"/><stop offset=".3875" stop-color="#fec3ff"/><stop offset=".5338" stop-color="#feddff"/><stop offset=".6827" stop-color="#fff0ff"/><stop offset=".8359" stop-color="#fffbff"/><stop offset="1" stop-color="#fff"/></linearGradient><linearGradient id="SVGID_6_" gradientUnits="userSpaceOnUse" x1="-152.048" x2="475.975" xlink:href="#lg3" y1="664.048" y2="36.025"/><linearGradient id="SVGID_7_" gradientUnits="userSpaceOnUse" x1="19.709" x2="406.064" xlink:href="#lg3" y1="493.729" y2="107.374"/><linearGradient id="SVGID_8_" gradientTransform="matrix(-.866 -.5 -.5 .866 -137.985 -36.973)" gradientUnits="userSpaceOnUse" x1="-154.155" x2="-533.798" xlink:href="#lg2" y1="334.569" y2="-45.074"/><linearGradient id="SVGID_9_" gradientTransform="matrix(.5 -.866 -.866 -.5 678.973 1176.016)" gradientUnits="userSpaceOnUse" x1="486.29" x2="697.648" xlink:href="#lg2" y1="804.251" y2="747.618"/><linearGradient id="SVGID_10_" gradientTransform="matrix(-1 0 0 1 -671.997 .004)" gradientUnits="userSpaceOnUse" x1="-799.848" x2="-1076.763" xlink:href="#lg2" y1="330.518" y2="53.604"/><linearGradient id="SVGID_11_" gradientUnits="userSpaceOnUse" x1="116.4" x2="302.704" xlink:href="#lg1" y1="395.6" y2="209.296"/><linearGradient id="SVGID_12_" gradientUnits="userSpaceOnUse" x1="177.238" x2="315.209" xlink:href="#lg1" y1="334.762" y2="196.791"/><g><circle cx="256" cy="256" fill="url(#SVGID_1_)" r="256"/><circle cx="256" cy="256" fill="url(#SVGID_2_)" r="256"/><circle cx="256" cy="256" fill="url(#SVGID_3_)" r="200.9"/><circle cx="256" cy="256" fill="url(#SVGID_4_)" r="200.9"/><circle cx="256" cy="256" fill="url(#SVGID_5_)" r="170.15"/><circle cx="256" cy="256" fill="url(#SVGID_6_)" r="124.025"/><path d="m271.294 349.262c-67.927.012-124.083-56.021-123.882-123.792.055-13.703 2.405-26.893 6.661-39.252-13.877 19.968-22.102 43.961-22.098 69.783.132 67.589 56.436 123.893 124.025 124.025 54.053-.016 100.641-36.133 117.496-84.879-22.566 32.328-60.045 54.043-102.202 54.115z" fill="url(#SVGID_7_)"/><path d="m172.573 199.103c26.783 15.325 53.69 30.851 80.614 46.396-2.562 4.439-5.125 8.877-7.688 13.315-26.927-15.546-53.853-31.079-80.673-46.417-3.663-2.095-4.894-6.761-2.752-10.431s6.842-4.956 10.499-2.863z" fill="url(#SVGID_8_)"/><path d="m336.672 302.454c-4.276 7.344-13.671 9.908-20.995 5.699-20.191-11.6-40.442-23.291-60.707-34.993 5.124-8.877 10.251-17.754 15.374-26.629 20.269 11.704 40.543 23.403 60.777 35.018 7.343 4.214 9.827 13.561 5.551 20.905z" fill="url(#SVGID_9_)"/><path d="m256 147.35c8.428 0 15.276 6.899 15.294 15.388.049 28.525.076 57.05.08 85.575-10.25-.001-20.499-.001-30.749 0 .004-28.525.031-57.05.08-85.575.019-8.489 6.867-15.388 15.295-15.388z" fill="url(#SVGID_10_)"/><path d="m279.062 256c-.001 12.731-10.331 23.062-23.062 23.063-12.731-.001-23.062-10.331-23.063-23.063.001-12.731 10.331-23.062 23.063-23.062 12.731.001 23.062 10.331 23.062 23.062z" fill="url(#SVGID_11_)"/><path d="m263.688 256c0 4.245-3.442 7.688-7.688 7.688-4.245 0-7.688-3.442-7.688-7.688 0-4.245 3.442-7.688 7.688-7.688 4.245.001 7.688 3.443 7.688 7.688z" fill="url(#SVGID_12_)"/></g></svg>