<svg id="Capa_1" enable-background="new 0 0 512 512" height="512" viewBox="0 0 512 512" width="512" xmlns="http://www.w3.org/2000/svg"><g><g><ellipse cx="255.322" cy="451.511" fill="#ccf3e2" rx="117.758" ry="47.719"/><path d="m424.233 181.682c0 93.287-144.774 259.053-168.912 259.053s-168.911-165.765-168.911-259.053c0-93.287 75.624-168.912 168.912-168.912s168.911 75.625 168.911 168.912z" fill="#d789b9"/><ellipse cx="255.322" cy="179.465" fill="#fff" rx="113.662" ry="113.662" transform="matrix(.707 -.707 .707 .707 -52.119 233.104)"/><path d="m367.735 158.912c-.827-5.375-2.855-9.892-5.435-14.054.083 1.965.132 3.938.132 5.924 0 36.757-27.51 87.283-58.208 129.753 45.302-19.006 71.691-70.725 63.511-121.623z" fill="#e1bdfc"/><path d="m255.322 12.771c-5.47 0-10.877.27-16.214.778 67.384 7.129 120.296 62.747 123.192 131.309 2.58 4.163 4.608 8.68 5.435 14.054 8.18 50.898-18.208 102.616-63.512 121.622-32.958 45.598-69.591 81.908-79.802 81.908-18.674 0-125.706-121.427-137.023-199.036-.646 6.005-.987 12.101-.987 18.277 0 93.288 144.774 259.053 168.912 259.053s168.912-165.765 168.912-259.053c-.002-93.288-75.626-168.912-168.913-168.912z" fill="#c668b9"/><path d="m288.401 249.053s51.892-40.94 47.771-66.563c-.793-12.868-11.401-23.129-24.497-23.273-10.568-.117-19.66 6.39-23.345 15.657-3.479-9.345-12.426-16.051-22.994-16.167-13.333-.147-24.323 10.245-25.057 23.426-4.321 24.929 48.122 66.92 48.122 66.92z" fill="#faf1a9"/><path d="m222.612 221.725s51.892-40.94 47.771-66.563c-.793-12.868-11.401-23.129-24.497-23.273-10.568-.117-19.66 6.39-23.345 15.657-3.479-9.345-12.426-16.051-22.994-16.167-13.333-.147-24.323 10.245-25.057 23.426-4.321 24.929 48.122 66.92 48.122 66.92z" fill="#c1e5ef"/><path d="m449.28 396.302 8.245 23.183c.353.992 1.052 1.779 1.934 2.176l20.597 9.28c2.91 1.311 2.91 5.947 0 7.258l-20.597 9.28c-.882.397-1.581 1.184-1.934 2.176l-8.245 23.183c-1.165 3.275-5.284 3.275-6.449 0l-8.245-23.183c-.353-.992-1.052-1.779-1.934-2.176l-20.597-9.28c-2.91-1.311-2.91-5.947 0-7.258l20.597-9.28c.882-.397 1.581-1.184 1.934-2.176l8.245-23.183c1.165-3.275 5.284-3.275 6.449 0z" fill="#e8c2d8"/><path d="m29.231 367.191 6.116 17.196c.262.736.78 1.32 1.434 1.615l15.278 6.883c2.159.973 2.159 4.412 0 5.384l-15.278 6.884c-.654.295-1.173.878-1.434 1.615l-6.116 17.197c-.864 2.43-3.92 2.43-4.784 0l-6.116-17.197c-.262-.736-.78-1.32-1.434-1.615l-15.279-6.884c-2.158-.973-2.158-4.412 0-5.384l15.279-6.883c.654-.295 1.172-.878 1.434-1.615l6.116-17.196c.865-2.43 3.92-2.43 4.784 0z" fill="#e8c2d8"/><g fill="#d789b9"><circle cx="52.566" cy="304.173" r="18.003"/><ellipse cx="104.699" cy="392.938" rx="7.766" ry="7.766" transform="matrix(.16 -.987 .987 .16 -299.919 433.502)"/><ellipse cx="446.051" cy="314.65" rx="7.766" ry="7.766" transform="matrix(.175 -.985 .985 .175 58.03 698.583)"/></g><path d="m487.552 248.585 6.116 17.196c.262.736.78 1.32 1.434 1.615l15.278 6.884c2.159.973 2.159 4.412 0 5.384l-15.278 6.884c-.654.295-1.173.878-1.434 1.615l-6.116 17.197c-.864 2.429-3.92 2.429-4.784 0l-6.116-17.197c-.262-.736-.78-1.32-1.434-1.615l-15.279-6.884c-2.159-.973-2.159-4.412 0-5.384l15.279-6.884c.654-.295 1.172-.878 1.434-1.615l6.116-17.196c.865-2.43 3.92-2.43 4.784 0z" fill="#e8c2d8"/></g><g fill="#3c122c"><path d="m317.528 400.767c13.127-14.707 26.64-31.366 39.375-48.613 28.894-39.13 77.367-113.311 77.367-170.471 0-98.672-80.276-178.948-178.948-178.948s-178.949 80.275-178.949 178.947c0 57.16 48.473 131.341 77.367 170.471 12.734 17.246 26.246 33.903 39.372 48.61-37.111 8.887-65.585 26.081-65.585 50.747 0 37.514 65.843 57.755 127.795 57.755s127.795-20.241 127.795-57.755c-.001-24.666-28.478-41.856-65.589-50.743zm-221.081-219.085c0-87.604 71.271-158.875 158.875-158.875s158.875 71.271 158.875 158.875c0 36.796-25.917 93.425-71.106 155.366-17.783 24.376-37.408 47.871-55.258 66.16-21.053 21.569-30.181 26.352-32.51 27.316-2.329-.965-11.457-5.747-32.51-27.316-17.851-18.289-37.475-41.784-55.258-66.16-45.191-61.94-71.108-118.569-71.108-155.366zm158.875 307.51c-66.74 0-107.721-21.947-107.721-37.681 0-11.663 22.535-26.731 61.37-33.752.894.912 1.787 1.823 2.672 2.709 30.249 30.305 39.66 30.305 43.679 30.305s13.43 0 43.679-30.305c.885-.887 1.779-1.799 2.673-2.711 38.835 7.021 61.368 22.09 61.368 33.754.001 15.734-40.98 37.681-107.72 37.681z"/><path d="m375.005 179.465c0-65.993-53.69-119.684-119.684-119.684s-119.684 53.69-119.684 119.684 53.69 119.684 119.684 119.684 119.684-53.69 119.684-119.684zm-227.323 0c0-59.353 48.287-107.64 107.64-107.64s107.64 48.287 107.64 107.64-48.287 107.64-107.64 107.64-107.64-48.287-107.64-107.64z"/><path d="m284.638 253.754c1.1.88 2.432 1.321 3.764 1.321 1.318 0 2.636-.431 3.73-1.294 5.576-4.4 54.198-43.672 50.032-71.949-1.13-15.907-14.437-28.461-30.422-28.637-8.974-.056-17.446 3.798-23.286 10.267-3.261-3.777-7.405-6.721-12.036-8.57-.017-.129-.027-.259-.046-.388-1.13-15.907-14.437-28.461-30.422-28.637-8.987-.129-17.446 3.797-23.286 10.267-5.695-6.595-14.076-10.679-23.053-10.778-.117-.001-.232-.002-.349-.002-16.27 0-29.689 12.55-30.766 28.777-4.312 27.628 44.721 67.789 50.35 72.295 1.1.88 2.432 1.321 3.764 1.321 1.318 0 2.636-.431 3.73-1.294 1.949-1.538 9.159-7.339 17.534-15.44 13.626 20.598 36.981 39.714 40.762 42.741zm-9.581-86.111c3.43 2.158 6.167 5.4 7.631 9.332.869 2.335 3.087 3.893 5.578 3.921h.067c2.464 0 4.683-1.503 5.595-3.797 2.855-7.179 9.923-11.949 17.683-11.859 9.801.108 17.95 7.848 18.552 17.621.012.196.034.392.065.586 2.423 15.068-22.97 42.131-41.8 57.829-12.364-10.426-27.522-25.65-35.948-39.047 9.603-10.397 18.961-22.803 22.577-34.586zm-52.42 46.305c-19.044-16.058-44.745-43.51-42.213-58.114.04-.23.067-.462.079-.695.556-9.987 8.778-17.74 18.765-17.74.071 0 .142.001.213.002 7.722.085 14.722 5.007 17.416 12.246.869 2.335 3.086 3.893 5.577 3.921 2.461.003 4.742-1.482 5.662-3.796 2.83-7.116 9.836-11.862 17.479-11.862.068 0 .136.001.204.002 9.801.108 17.95 7.848 18.552 17.621.012.196.034.392.065.586 2.425 15.069-22.969 42.132-41.799 57.829z"/></g></g></svg>