<svg id="Capa_1" enable-background="new 0 0 512 512" height="512" viewBox="0 0 512 512" width="512" xmlns="http://www.w3.org/2000/svg"><g><g><path d="m195.356 44.554h-49.772c-4.082 0-7.967 1.753-10.668 4.814l-20.111 22.788c-4.13 4.68-4.728 11.506-1.474 16.832l21.672 35.479c2.584 4.231 7.185 6.812 12.143 6.812h46.649c4.958 0 9.558-2.581 12.143-6.812l21.672-35.479c3.254-5.327 2.656-12.152-1.474-16.832l-20.111-22.788c-2.702-3.061-6.587-4.814-10.669-4.814z" fill="#c1e5ef"/><path d="m341.176 177.738c-88.78 0-160.75 71.97-160.75 160.75 0 13.238 1.612 26.097 4.629 38.405-4.662.582-9.411.885-14.23.885-62.754 0-113.625-50.872-113.625-113.625s50.872-113.625 113.625-113.625c34.489 0 65.367 15.385 86.204 39.645 13.729-8.026 36.667-18.14 46.728-16.421-28.931-42.464-77.673-70.349-132.932-70.349-88.78 0-160.75 71.97-160.75 160.75s71.97 160.75 160.75 160.75c11.209 0 22.149-1.151 32.711-3.334 28.159 46.551 79.264 77.669 137.64 77.669 88.78 0 160.75-71.97 160.75-160.75-.001-88.78-71.971-160.75-160.75-160.75zm0 274.375c-38.038 0-71.707-18.695-92.33-47.394 49.34-27.445 82.728-80.102 82.728-140.566 0-10.248-1.664-18.466-3.499-28.18-6.242-1.047-36.186 8.596-44.197 16.505.551 4.538.571 6.988.571 11.675 0 41.143-21.867 77.177-54.613 97.117-1.498-7.36-2.286-14.979-2.286-22.782 0-62.754 50.872-113.625 113.625-113.625s113.625 50.872 113.625 113.625c.001 62.754-50.871 113.625-113.624 113.625z" fill="#f6e06e"/><g fill="#dda86a"><path d="m437.892 210.086c-3.315-1.385-6.628-2.771-9.941-4.142-7.789-3.223-15.655-6.429-23.634-9.293 46.3 25.73 77.635 75.126 77.635 131.851 0 83.264-67.499 150.763-150.763 150.763-48.949 0-92.438-23.334-119.976-59.478-2.331.979-4.687 1.904-7.061 2.783 28.284 45.994 79.069 76.668 137.024 76.668 88.78 0 160.75-71.97 160.75-160.75-.001-52.469-25.144-99.063-64.034-128.402z"/><path d="m333.949 205.158c-68.645 0-124.292 54.942-124.292 122.717 0 13.322 2.153 26.145 6.13 38.155 4.335-2.266 8.612-4.645 12.946-6.897-.172-2.769-.261-5.562-.261-8.377 0-69.676 53.492-126.159 119.478-126.159 44.167 0 82.733 25.308 103.41 62.937-16.901-47.956-63.082-82.376-117.411-82.376z"/><path d="m326.707 224.773h-17.975c1.879 9.507 2.868 19.335 2.868 29.394 0 83.264-67.499 150.763-150.763 150.763-58.605 0-109.394-33.441-134.337-82.281 1.661 7.774 3.545 15.525 5.831 23.142 27.97 47.348 79.518 79.112 138.493 79.112 88.78 0 160.75-71.97 160.75-160.75 0-13.587-1.693-26.778-4.867-39.38z"/><path d="m270.756 191.359c-21.606-36.222-61.501-60.536-107.158-60.536-68.645 0-124.292 54.943-124.292 122.717 0 32.578 12.862 62.186 33.84 84.157-9.567-18.144-15.025-39.036-15.025-61.277 0-69.676 53.492-126.159 119.478-126.159 34.941 0 66.366 15.849 88.213 41.097h4.944z"/></g><path d="m429.848 73.215 8.275 23.269c.354.996 1.056 1.786 1.941 2.185l20.674 9.314c2.921 1.316 2.921 5.969 0 7.285l-20.674 9.314c-.885.399-1.587 1.188-1.941 2.185l-8.275 23.269c-1.169 3.287-5.304 3.287-6.473 0l-8.275-23.269c-.354-.996-1.056-1.786-1.941-2.185l-20.674-9.314c-2.921-1.316-2.921-5.97 0-7.285l20.674-9.314c.885-.399 1.587-1.188 1.941-2.185l8.275-23.269c1.169-3.287 5.304-3.287 6.473 0z" fill="#faf1a9"/><path d="m42.733 4.517 6.139 17.26c.263.739.783 1.325 1.44 1.621l15.336 6.909c2.166.976 2.166 4.428 0 5.404l-15.336 6.909c-.656.296-1.177.882-1.44 1.621l-6.139 17.261c-.867 2.438-3.934 2.438-4.801 0l-6.138-17.261c-.263-.739-.783-1.325-1.44-1.621l-15.335-6.909c-2.166-.976-2.166-4.428 0-5.404l15.335-6.909c.657-.296 1.177-.882 1.44-1.621l6.138-17.26c.867-2.439 3.934-2.439 4.801 0z" fill="#faf1a9"/><circle cx="338.519" cy="62.231" fill="#f6e06e" r="18.07"/><ellipse cx="449.781" cy="33.249" fill="#f6e06e" rx="7.795" ry="7.795" transform="matrix(.924 -.383 .383 .924 21.514 174.655)"/></g><path d="m341.176 167.664c-9.483 0-18.784.79-27.851 2.283-20.397-30.832-49.517-53.64-83.032-66.025l5.914-9.682c5.591-9.155 4.579-20.709-2.519-28.75l-20.11-22.787c-4.61-5.225-11.253-8.223-18.222-8.223h-49.772c-6.968 0-13.609 2.997-18.222 8.222l-20.109 22.787c-7.098 8.042-8.111 19.596-2.52 28.751l6.093 9.975c-64.681 24.345-110.826 86.85-110.826 159.938 0 94.193 76.631 170.824 170.824 170.824 9.514 0 18.845-.795 27.94-2.298 30.615 46.14 83.008 76.633 142.411 76.633 94.193 0 170.824-76.631 170.824-170.824.001-94.192-76.63-170.824-170.823-170.824zm-219.248-83.927c-.956-1.565-.783-3.54.431-4.916l20.109-22.786c.789-.894 1.924-1.406 3.116-1.406h49.772c1.191 0 2.327.512 3.115 1.405l20.111 22.789c1.213 1.374 1.386 3.349.43 4.914l-8.663 14.182c-12.776-3.009-26.017-4.59-39.524-4.59-13.816 0-27.249 1.66-40.123 4.771zm-101.779 180.416c0-83.083 67.593-150.676 150.676-150.676 48.385 0 92.967 22.752 121.346 61.362-9.066 2.72-17.818 6.172-26.185 10.291-23.596-28.461-57.957-44.677-95.161-44.677-68.209 0-123.7 55.492-123.7 123.7s55.491 123.699 123.7 123.699 123.7-55.492 123.7-123.699c0-5.844-.419-11.698-1.232-17.458 8.042-4.212 16.702-7.396 25.805-9.381 1.585 8.819 2.403 17.813 2.403 26.839 0 83.083-67.593 150.675-150.676 150.675s-150.676-67.592-150.676-150.675zm228.006-68.871c-46.799 30.503-77.804 83.298-77.804 143.206 0 9.951.867 19.702 2.511 29.19-.678.013-1.356.026-2.037.026-57.099 0-103.551-46.453-103.551-103.551 0-57.099 46.453-103.551 103.551-103.551 29.936 0 57.676 12.544 77.33 34.68zm-10.531 143.206c0-31.608 14.24-59.949 36.636-78.958.068 1.54.116 3.081.116 4.623 0 31.611-14.243 59.954-36.643 78.963-.068-1.534-.109-3.076-.109-4.628zm101.536-103.525c.671-.013 1.341-.025 2.015-.025 57.099 0 103.551 46.453 103.551 103.551s-46.453 103.551-103.551 103.551c-30.692 0-58.29-13.437-77.266-34.722 46.763-30.509 77.739-83.284 77.739-143.164.001-9.806-.835-19.587-2.488-29.191zm2.016 254.201c-49.683 0-93.805-24.185-121.265-61.385 9.064-2.724 17.813-6.181 26.179-10.304 22.705 27.293 56.89 44.714 95.086 44.714 68.209 0 123.7-55.492 123.7-123.699 0-68.208-55.491-123.7-123.7-123.7s-123.7 55.492-123.7 123.7c0 5.924.435 11.747 1.246 17.45-8.043 4.214-16.704 7.4-25.81 9.387-1.573-8.713-2.412-17.678-2.412-26.837 0-83.082 67.593-150.675 150.676-150.675s150.676 67.593 150.676 150.675c0 83.081-67.593 150.674-150.676 150.674z" fill="#3c122c"/></g></svg>